name C:\Users\u0101727\Documents\MyRepositories\upper-imu-dc\Results\main_mocap_tracking\Case_6\kinematics.mot
datacolumns 15
datarows 31
range 1.99538462 2.27230769
endheader 
time	ground_thorax_rot_x	ground_thorax_rot_y	ground_thorax_rot_z	clav_prot	clav_elev	scapula_abduction	scapula_elevation	scapula_upward_rot	scapula_winging	plane_elv	shoulder_elv	axial_rot	elbow_flexion	pro_sup	
          1.99538462	         -0.37171244	        -10.02026250	        -12.25684781	        -24.93748039	          4.15900275	         10.88108442	         -4.67346445	         53.43331491	         -5.10576471	         60.87200863	         71.90408204	        -24.69132863	          0.03332801	         34.31704779	
          2.00461538	         -0.39872632	        -10.04830357	        -12.28407583	        -25.10994266	          4.27400431	         10.85923016	         -4.62300875	         53.80691149	         -5.17628507	         60.63002887	         72.17686116	        -24.58167171	          0.03432612	         34.31695863	
          2.01384615	         -0.42639221	        -10.07537714	        -12.31077746	        -25.27919622	          4.38574184	         10.83925263	         -4.57363725	         54.17469270	         -5.24497799	         60.38425462	         72.44851767	        -24.47275522	          0.03497763	         34.31690470	
          2.02307692	         -0.45470452	        -10.10165351	        -12.33696325	        -25.44436886	          4.49280753	         10.82148521	         -4.52622408	         54.53482451	         -5.31126809	         60.13533003	         72.72100520	        -24.36873374	          0.03501836	         34.31691111	
          2.03230769	         -0.48364928	        -10.12722264	        -12.36264112	        -25.60498234	          4.59352809	         10.80549665	         -4.48185882	         54.88532463	         -5.37453878	         59.88490688	         72.99630723	        -24.26836309	          0.03429463	         34.31699158	
          2.04153846	         -0.51319504	        -10.15209988	        -12.38781045	        -25.76101345	          4.68624429	         10.79022753	         -4.44167191	         55.22443504	         -5.43425041	         59.63544499	         73.27606495	        -24.16507621	          0.03285409	         34.31713945	
          2.05076923	         -0.54328739	        -10.17625211	        -12.41245671	        -25.91282679	          4.76953395	         10.77436516	         -4.40668747	         55.55098855	         -5.49002252	         59.38973010	         73.56122733	        -24.04836022	          0.03096534	         34.31732540	
          2.06000000	         -0.57384752	        -10.19963533	        -12.43654807	        -26.06100390	          4.84230388	         10.75684315	         -4.37775286	         55.86466544	         -5.54165351	         59.15024176	         73.85183121	        -23.90625006	          0.02906238	         34.31750400	
          2.06923077	         -0.60477192	        -10.22222902	        -12.46003441	        -26.20616313	          4.90379648	         10.73725750	         -4.35551939	         56.16610590	         -5.58909921	         58.91859755	         74.14695780	        -23.72840368	          0.02763185	         34.31762725	
          2.07846154	         -0.63593045	        -10.24405588	        -12.48284826	        -26.34885651	          4.95358973	         10.71603023	         -4.34042691	         56.45688422	         -5.63244523	         58.69527884	         74.44485438	        -23.50875147	          0.02707514	         34.31765907	
          2.08769231	         -0.66716306	        -10.26518325	        -12.50490758	        -26.48956336	          4.99162502	         10.69427587	         -4.33267129	         56.73934348	         -5.67189054	         58.47970766	         74.74319772	        -23.24690416	          0.02759093	         34.31758599	
          2.09692308	         -0.69827784	        -10.28571183	        -12.52612044	        -26.62873593	          5.01822930	         10.67350771	         -4.33217873	         57.01634998	         -5.70773618	         58.27054501	         75.03940275	        -22.94806144	          0.02911605	         34.31741968	
          2.10615385	         -0.72905183	        -10.30575393	        -12.54639108	        -26.76686343	          5.03408618	         10.65524540	         -4.33861656	         57.29095524	         -5.74036456	         58.06608365	         75.33098498	        -22.62222899	          0.03136372	         34.31719287	
          2.11538462	         -0.75923597	        -10.32540917	        -12.56562675	        -26.90447817	          5.04018775	         10.64060595	         -4.35141246	         57.56591075	         -5.77020808	         57.86468252	         75.61603694	        -22.28278568	          0.03391184	         34.31695361	
          2.12461538	         -0.78856471	        -10.34475318	        -12.58374260	        -27.04209136	          5.03781657	         10.63015784	         -4.36975706	         57.84335453	         -5.79773151	         57.66504603	         75.89347381	        -21.94391170	          0.03624728	         34.31675030	
          2.13384615	         -0.81676171	        -10.36382403	        -12.60066245	        -27.18022588	          5.02860113	         10.62384094	         -4.39257204	         58.12480004	         -5.82346191	         57.46626938	         76.16299100	        -21.61978931	          0.03786509	         34.31663070	
          2.14307692	         -0.84354566	        -10.38261498	        -12.61631714	        -27.31941646	          5.01465933	         10.62092975	         -4.41841503	         58.41113137	         -5.84804123	         57.26786402	         76.42502067	        -21.32374393	          0.03830856	         34.31663859	
          2.15230769	         -0.86863846	        -10.40106954	        -12.63064389	        -27.46018839	          4.99865626	         10.62003674	         -4.44544270	         58.70257502	         -5.87225294	         57.06980016	         76.68068840	        -21.06698517	          0.03717930	         34.31681207	
          2.16153846	         -0.89177608	        -10.41907736	        -12.64358793	        -27.60305966	          4.98365484	         10.61922315	         -4.47152249	         58.99879035	         -5.89699735	         56.87244778	         76.93161610	        -20.85755987	          0.03417938	         34.31717919	
          2.17076923	         -0.91272236	        -10.43647605	        -12.65510684	        -27.74853235	          4.97274384	         10.61628896	         -4.49450048	         59.29908927	         -5.92320155	         56.67634045	         77.17956758	        -20.69975607	          0.02919779	         34.31774918	
          2.18000000	         -0.93128543	        -10.45306192	        -12.66517663	        -27.89701729	          4.96852767	         10.60918207	         -4.51255801	         59.60262158	         -5.95166980	         56.48186196	         77.42612881	        -20.59373969	          0.02240346	         34.31850287	
          2.18923077	         -0.94733295	        -10.46860913	        -12.67379759	        -28.04870235	          4.97265178	         10.59637858	         -4.52453542	         59.90842055	         -5.98292186	         56.28902728	         77.67256563	        -20.53516876	          0.01429110	         34.31938734	
          2.19846154	         -0.96080011	        -10.48289506	        -12.68099595	        -28.20343731	          4.98556712	         10.57713558	         -4.53008866	         60.21540062	         -6.01709473	         56.09742152	         77.91979953	        -20.51493719	          0.00563574	         34.32031960	
          2.20769231	         -0.97168643	        -10.49573064	        -12.68681892	        -28.36069118	          5.00662814	         10.55164361	         -4.52961953	         60.52248052	         -6.05395228	         55.90618780	         78.16834078	        -20.51964196	         -0.00264255	         34.32120010	
          2.21692308	         -0.98004276	        -10.50699084	        -12.69132478	        -28.51956539	          5.03443337	         10.52111880	         -4.52404025	         60.82881752	         -6.09297613	         55.71396564	         78.41817853	        -20.53310238	         -0.00964373	         34.32193170	
          2.22615385	         -0.98595414	        -10.51663601	        -12.69457325	        -28.67881692	          5.06717147	         10.48784365	         -4.51453224	         61.13400099	         -6.13345899	         55.51880457	         78.66874141	        -20.53855510	         -0.01464942	         34.32244003	
          2.23538462	         -0.98951937	        -10.52470567	        -12.69661973	        -28.83699201	          5.10287889	         10.45490315	         -4.50237127	         61.43809163	         -6.17459070	         55.31832306	         78.91902093	        -20.52088457	         -0.01727262	         34.32269066	
          2.24461538	         -0.99082511	        -10.53127546	        -12.69751226	        -28.99278547	          5.13974991	         10.42532870	         -4.48873104	         61.74144684	         -6.21560367	         55.11036609	         79.16789709	        -20.46796706	         -0.01749832	         34.32269108	
          2.25384615	         -0.98992547	        -10.53640878	        -12.69729182	        -29.14538730	          5.17634818	         10.40125692	         -4.47455733	         62.04450929	         -6.25590100	         54.89367266	         79.41441889	        -20.37064344	         -0.01561789	         34.32247899	
          2.26307692	         -0.98682932	        -10.54011922	        -12.69599308	        -29.29469811	          5.21177147	         10.38331531	         -4.46046867	         62.34757563	         -6.29515831	         54.66833612	         79.65805878	        -20.22237113	         -0.01213307	         34.32211081	
          2.27230769	         -0.98149534	        -10.54235545	        -12.69364276	        -29.44136485	          5.24585575	         10.37034953	         -4.44662039	         62.65060263	         -6.33340950	         54.43593696	         79.89890140	        -20.01894495	         -0.00765035	         34.32164878	
